<svg width="48" height="48" xmlns="http://www.w3.org/2000/svg" version="1.1">

  <g stroke="null" id="svgg">
   <path stroke="null" fill-rule="evenodd" fill="#b4db64" d="m8.37377,14.04313c0.01453,0.02339 -0.08531,0.05423 -0.22177,0.06853c-0.41613,0.04336 -0.64995,0.08578 -0.65007,0.1178c0,0.01678 -0.07975,0.03615 -0.17723,0.04313c-0.09736,0.00697 -0.1842,0.03356 -0.19282,0.05908c-0.00874,0.02552 -0.0781,0.04643 -0.15431,0.04643c-0.07609,0 -0.18065,0.02127 -0.23229,0.04726c-0.05163,0.02599 -0.13623,0.06853 -0.18786,0.09452c-0.05163,0.02599 -0.1367,0.04726 -0.18904,0.04726c-0.05234,0 -0.09511,0.01867 -0.09511,0.04135c0,0.0228 -0.05553,0.04135 -0.12347,0.04135c-0.06806,0 -0.14001,0.0267 -0.16021,0.05919c-0.02009,0.03261 -0.05896,0.04549 -0.08625,0.02859c-0.02729,-0.0169 -0.07054,0.00673 -0.09618,0.05258c-0.02564,0.04584 -0.06144,0.06853 -0.07952,0.05057c-0.01796,-0.01808 -0.06487,-0.00071 -0.10409,0.03852c-0.03923,0.03923 -0.10055,0.06014 -0.13623,0.04655c-0.03556,-0.01371 -0.06475,-0.00437 -0.06475,0.02068c0,0.02493 -0.10102,0.09157 -0.22449,0.14793c-0.12347,0.05624 -0.27234,0.14521 -0.33083,0.19743c-0.05849,0.05234 -0.10634,0.07715 -0.10634,0.05506c0,-0.02209 -0.05163,0.00839 -0.11461,0.06758c-0.0677,0.06357 -0.13847,0.09299 -0.17274,0.07184c-0.03308,-0.02044 -0.04596,-0.0163 -0.03001,0.00957c0.01536,0.02493 -0.07172,0.11331 -0.19353,0.19637c-0.12193,0.08306 -0.27482,0.18822 -0.3398,0.2337c-0.06498,0.04537 -0.25403,0.21551 -0.42027,0.37797c-0.16612,0.16246 -0.31098,0.29538 -0.32185,0.29538c-0.01087,0 -0.17628,0.16482 -0.36769,0.36627c-0.45914,0.48348 -0.49707,0.52637 -0.49707,0.56205c0,0.01666 -0.06191,0.08944 -0.13753,0.16175c-0.07562,0.07231 -0.12784,0.14119 -0.11603,0.15301c0.01193,0.01193 -0.05104,0.09854 -0.13977,0.19271c-0.08873,0.09405 -0.14202,0.17108 -0.11851,0.17108c0.02363,0 -0.00047,0.04655 -0.0534,0.10338c-0.05305,0.05695 -0.09641,0.13268 -0.09641,0.16825c0,0.03745 -0.02339,0.05033 -0.0553,0.0306c-0.03675,-0.02269 -0.04549,-0.00874 -0.02623,0.04147c0.01855,0.04832 0.00012,0.08259 -0.05104,0.09488c-0.49955,0.11945 0.75523,0.12855 17.74571,0.12855l17.55973,0l-0.08011,0.12229c-0.04407,0.06723 -0.069,0.13328 -0.05541,0.14686c0.01359,0.01359 0.10244,-0.13717 0.19767,-0.33496c0.09511,-0.19767 0.18963,-0.35954 0.20984,-0.35954c0.02032,0 0.04702,-0.03722 0.05931,-0.08271c0.17404,-0.64216 2.28423,-2.57819 3.41506,-3.13315c0.12997,-0.0638 0.24339,-0.13198 0.25202,-0.15147c0.00874,-0.0195 0.05659,-0.03545 0.10634,-0.03545c0.04986,0 0.09062,-0.02127 0.09062,-0.04726c0,-0.02599 0.02989,-0.04726 0.0664,-0.04726c0.0573,0 0.20771,-0.06522 0.55921,-0.24221c0.04513,-0.0228 0.12359,-0.04135 0.17439,-0.04135c0.05081,0 0.10397,-0.01879 0.11803,-0.04159c0.01418,-0.02292 0.07396,-0.05329 0.1328,-0.06758c0.05884,-0.0143 0.19211,-0.05021 0.29609,-0.07975c0.45926,-0.13044 0.93824,-0.23701 1.20515,-0.26809c0.11697,-0.01359 0.23288,-0.04407 0.25769,-0.06758c0.02694,-0.02552 -7.10648,-0.04265 -17.71357,-0.04242c-10.54258,0.00024 -17.74795,0.01772 -17.73235,0.04301m28.07549,5.4227c-0.0397,0.09499 -0.0612,0.18361 -0.04785,0.19696c0.01335,0.01335 0.02422,0.01264 0.02422,-0.00142c0,-0.01418 0.03214,-0.10279 0.07148,-0.19696c0.03934,-0.09417 0.06097,-0.1712 0.04797,-0.1712c-0.013,0 -0.05612,0.07774 -0.09582,0.17262m-0.32893,0.78441c-0.01028,0.03249 -0.06108,0.18668 -0.11284,0.34264c-0.05175,0.15596 -0.10622,0.358 -0.12099,0.44898c-0.03025,0.18609 -0.00638,0.12808 0.13635,-0.33083c0.15029,-0.48348 0.15986,-0.51987 0.13812,-0.51987c-0.01205,0 -0.03025,0.02658 -0.04064,0.05908m-0.34642,1.25395c-0.03084,0.14864 -0.0664,0.35528 -0.07904,0.45926l-0.02304,0.18904l0.0475,-0.18904c0.09866,-0.39286 0.1536,-0.68658 0.13257,-0.70761c-0.01205,-0.01205 -0.04702,0.09972 -0.07798,0.24836m-0.16813,1.13178c-0.01654,0.17593 -0.03037,0.43161 -0.03048,0.56807l-0.00035,0.24812l-17.65449,0l-17.65437,0l0.02091,0.62621c0.02446,0.73408 0.07101,1.17549 0.13056,1.23823c0.02351,0.02469 0.04265,0.14828 0.04265,0.27458c0,0.14096 0.0182,0.21834 0.04726,0.20039c0.02729,-0.0169 0.04726,0.02788 0.04726,0.10586c0,0.07432 0.02056,0.15572 0.04572,0.18089c0.02505,0.02505 0.05081,0.11437 0.0573,0.1985c0.00638,0.08401 0.02836,0.15277 0.0488,0.15277c0.02044,0 0.03722,0.0638 0.03722,0.14178c0,0.07798 0.02127,0.14178 0.04726,0.14178c0.02599,0 0.04797,0.04785 0.0488,0.10634c0.00083,0.05849 0.03202,0.14674 0.06936,0.19601c0.03734,0.04927 0.05671,0.10775 0.04301,0.12997c-0.01371,0.02221 -0.00248,0.04029 0.02505,0.04029c0.02753,0 0.0501,0.04253 0.0501,0.09452c0,0.05199 0.02127,0.09452 0.04726,0.09452c0.02599,0 0.04726,0.04253 0.04726,0.09452c0,0.05199 0.02127,0.09452 0.04726,0.09452c0.02599,0 0.04726,0.04253 0.04726,0.09452c0,0.05199 0.02221,0.09452 0.04939,0.09452c0.02706,0 0.04383,0.02658 0.03734,0.05908c-0.01406,0.06924 0.09346,0.28002 0.16848,0.33012c0.02859,0.01914 7.99298,0.03509 17.69868,0.03545c16.75039,0.00071 17.64988,0.00496 17.70943,0.08342c0.0345,0.04549 0.06345,0.05872 0.06427,0.02942c0.00083,-0.0293 -0.02883,-0.07845 -0.06593,-0.10929c-0.0371,-0.03084 -0.12441,-0.16482 -0.19389,-0.29774c-0.17439,-0.33354 -0.18692,-0.35918 -0.3066,-0.62668c-0.58284,-1.30333 -0.85601,-2.80847 -0.75405,-4.15587c0.05506,-0.72912 0.04135,-1.09031 -0.01772,-0.46481m1.97243,6.64333c0.10019,0.12217 0.192,0.22224 0.20405,0.22224c0.03226,0 -0.26714,-0.371 -0.33142,-0.4107c-0.03013,-0.01867 0.02717,0.06617 0.12737,0.18845m0.45867,0.54125c0.33673,0.35977 0.31606,0.33933 0.58639,0.57871c0.12997,0.11508 0.013,-0.02623 -0.25993,-0.31405c-0.27293,-0.28794 -0.51526,-0.52637 -0.53854,-0.52991c-0.02328,-0.00354 0.07219,0.11579 0.21208,0.26525m0.90197,0.87432c0.26442,0.25013 1.26765,0.93789 1.26765,0.86901c0,-0.01441 -0.10102,-0.08483 -0.22449,-0.15667c-0.23571,-0.13717 -0.94155,-0.66082 -0.98468,-0.73065c-0.01382,-0.02245 -0.04667,-0.04076 -0.07302,-0.04076c-0.02635,0 -0.01973,0.02658 0.01453,0.05908m1.45669,1.00311c0,0.02765 0.26454,0.16671 0.31665,0.16648c0.02079,-0.00012 -0.03178,-0.04265 -0.11697,-0.09452c-0.15821,-0.09653 -0.19968,-0.11142 -0.19968,-0.07195m0.37809,0.18975c0,0.03237 0.28935,0.17581 0.31098,0.15419c0.01028,-0.01028 -0.05553,-0.054 -0.14615,-0.09724c-0.09062,-0.04324 -0.16482,-0.06888 -0.16482,-0.05695m2.05466,0.77838c0.01678,0.02706 0.0859,0.04915 0.1536,0.04915c0.14816,0 0.13103,-0.02269 -0.0501,-0.06617c-0.08779,-0.02103 -0.12347,-0.01524 -0.1035,0.01701m0.45016,0.09393c0.03899,0.02658 0.13292,0.04868 0.20877,0.04903c0.1816,0.00095 0.14379,-0.02647 -0.09062,-0.06569c-0.1354,-0.02269 -0.16896,-0.01796 -0.11815,0.01666m0.51987,0.097c0,0.02599 0.0306,0.04726 0.06806,0.04726c0.03745,0 0.08129,-0.02127 0.09736,-0.04726c0.01607,-0.02599 -0.01453,-0.04726 -0.06806,-0.04726c-0.05352,0 -0.09736,0.02127 -0.09736,0.04726" id="path0"/>
   <path stroke="null" fill-rule="evenodd" fill="#dbf3a3" d="m44.17639,14.07479c-0.06498,0.03615 -0.21137,0.06593 -0.32539,0.06628c-0.1139,0.00035 -0.28404,0.02044 -0.37809,0.04466c-0.09393,0.0241 -0.29845,0.069 -0.45441,0.0996c-0.15596,0.0306 -0.33673,0.07207 -0.40172,0.09228c-0.06498,0.0202 -0.21385,0.06416 -0.33083,0.09771c-0.11697,0.03356 -0.23288,0.07857 -0.25757,0.10007c-0.02469,0.02139 -0.08342,0.03899 -0.13056,0.03899c-0.04714,0 -0.12264,0.0189 -0.16778,0.04206c-0.04513,0.02316 -0.18314,0.08696 -0.3066,0.14178c-0.79812,0.35446 -1.43968,0.7303 -2.08621,1.22205c-1.2745,0.96944 -2.36505,2.39636 -2.97081,3.88732c-0.02635,0.06498 -0.06498,0.16069 -0.08578,0.21267c-0.03391,0.08471 -0.15832,0.46339 -0.27955,0.85069c-0.24327,0.77756 -0.39061,2.53495 -0.28723,3.4264c0.16069,1.38521 0.61853,2.83175 1.14702,3.62395c0.07255,0.1087 0.13186,0.21066 0.13186,0.22662c0,0.01595 0.10504,0.18479 0.23347,0.37513c1.07294,1.58985 2.61352,2.84203 4.35083,3.53617c0.06498,0.02599 0.15513,0.06593 0.20027,0.08897c0.04513,0.02292 0.12489,0.04171 0.17723,0.04171c0.05234,0 0.09511,0.02127 0.09511,0.04726c0,0.02599 0.05187,0.04726 0.11532,0.04726c0.06345,0 0.12855,0.02127 0.14462,0.04726c0.01607,0.02599 0.0905,0.04726 0.16541,0.04726c0.07491,0 0.14793,0.01902 0.16234,0.0423c0.0143,0.02328 0.10598,0.054 0.20358,0.06841c0.09771,0.01441 0.29455,0.04974 0.43752,0.07845c0.14296,0.02871 0.42322,0.06841 0.62278,0.08826c0.19956,0.01985 0.39451,0.06238 0.43326,0.09452c0.12808,0.10634 1.68508,0.02257 1.68508,-0.09074c0,-0.02127 0.07444,-0.06569 0.16541,-0.09854c0.09098,-0.03296 0.16541,-0.07692 0.16541,-0.09759c0,-0.02079 0.02221,-0.03781 0.04939,-0.03781c0.08661,0 0.6587,-0.56406 0.65917,-0.64984c0.00024,-0.03249 0.02162,-0.05908 0.04762,-0.05908c0.02599,0 0.04726,-0.04383 0.04726,-0.09736c0,-0.05352 0.02127,-0.08412 0.04726,-0.06806c0.02599,0.01607 0.04726,-0.00425 0.04726,-0.04513c0,-0.04088 0.02127,-0.1165 0.04726,-0.16813c0.02599,-0.05163 0.06853,-0.13623 0.09452,-0.18786c0.07833,-0.15561 0.05908,-1.28266 -0.02564,-1.49533c-0.13481,-0.33886 -0.23406,-0.53641 -0.26974,-0.53688c-0.0195,-0.00035 -0.03545,-0.03249 -0.03545,-0.07148c0,-0.03899 -0.02127,-0.07089 -0.04726,-0.07089c-0.02599,0 -0.04726,-0.02269 -0.04726,-0.05033c0,-0.1777 -0.90303,-0.80036 -1.16084,-0.80036c-0.04041,0 -0.06038,-0.02127 -0.04431,-0.04726c0.01843,-0.02989 -0.10197,-0.04726 -0.32799,-0.04726c-0.19649,0 -0.35729,-0.0169 -0.35729,-0.03757c0,-0.02056 -0.19672,-0.04324 -0.43716,-0.05033c-0.24044,-0.00709 -0.45737,-0.03273 -0.48206,-0.05695c-0.02469,-0.02434 -0.11378,-0.04419 -0.19802,-0.04419c-0.08424,0 -0.16636,-0.02127 -0.18243,-0.04726c-0.01607,-0.02599 -0.07916,-0.04726 -0.14013,-0.04726c-0.11,0 -0.49494,-0.17628 -0.55047,-0.25214c-0.01583,-0.02174 -0.03887,-0.03237 -0.05104,-0.02363c-0.03875,0.02765 -0.50829,-0.20984 -0.48608,-0.24587c0.01182,-0.01902 -0.03757,-0.05896 -0.10953,-0.08873c-0.16778,-0.06947 -0.39534,-0.26431 -0.3554,-0.30412c0.0169,-0.0169 0.00626,-0.03072 -0.02351,-0.03072c-0.06664,0 -0.71777,-0.64771 -0.71777,-0.71399c0,-0.02623 -0.02127,-0.03462 -0.04726,-0.01855c-0.02599,0.01607 -0.04726,-0.01453 -0.04726,-0.06806c0,-0.05352 -0.02127,-0.09736 -0.04726,-0.09736c-0.02599,0 -0.04726,-0.03781 -0.04726,-0.08412c0,-0.0462 -0.04253,-0.11473 -0.09452,-0.15218c-0.05199,-0.03745 -0.09452,-0.10598 -0.09452,-0.15218c0,-0.04632 -0.02127,-0.08412 -0.04726,-0.08412c-0.02599,0 -0.04726,-0.04124 -0.04726,-0.09169c0,-0.05045 -0.02127,-0.10492 -0.04726,-0.12099c-0.02599,-0.01607 -0.04726,-0.08117 -0.04726,-0.14462c0,-0.06345 -0.02127,-0.11532 -0.04726,-0.11532c-0.02599,0 -0.04726,-0.0319 -0.04726,-0.07089c0,-0.03899 -0.01855,-0.07089 -0.04124,-0.07089c-0.03675,0 -0.07467,-0.20889 -0.11614,-0.63979c-0.00756,-0.07904 -0.0332,-0.17475 -0.05707,-0.21267c-0.06002,-0.09582 -0.06416,-1.13473 -0.00508,-1.25064c0.02658,-0.05199 0.04289,-0.16151 0.03615,-0.24339c-0.00662,-0.08176 0.01063,-0.16281 0.0384,-0.17995c0.02777,-0.01713 0.05045,-0.10445 0.05045,-0.19389c0,-0.08944 0.02127,-0.16258 0.04726,-0.16258c0.02599,0 0.04726,-0.03296 0.04726,-0.07314c0,-0.04029 0.04253,-0.16128 0.09452,-0.2688c0.05199,-0.10764 0.09452,-0.22354 0.09452,-0.25769c0,-0.03415 0.02127,-0.06203 0.04726,-0.06203c0.02599,0 0.04726,-0.04253 0.04726,-0.09452c0,-0.05199 0.02127,-0.09452 0.04726,-0.09452c0.02599,0 0.04726,-0.02871 0.04726,-0.06392c0,-0.03509 0.0638,-0.13056 0.14178,-0.2122c0.07798,-0.08164 0.14178,-0.17132 0.14178,-0.19932c0,-0.06711 0.93647,-0.98964 1.00453,-0.98964c0.02907,0 0.09665,-0.04041 0.15029,-0.08991c0.12288,-0.11319 0.47024,-0.31027 0.75924,-0.43078c0.34205,-0.14261 0.64487,-0.23548 0.7674,-0.23548c0.05447,0 0.1061,-0.01938 0.11484,-0.04313c0.00863,-0.02375 0.19649,-0.04868 0.41743,-0.0553c0.22094,-0.00673 0.43527,-0.02859 0.47615,-0.04868c0.041,-0.02009 0.22638,-0.04088 0.412,-0.04632c0.18562,-0.00543 0.32622,-0.02788 0.31263,-0.04998c-0.01371,-0.02209 0.01997,-0.04017 0.07467,-0.04017c0.0547,0 0.19932,-0.05317 0.32137,-0.11815c0.12205,-0.06498 0.24871,-0.11815 0.28144,-0.11815c0.03273,0 0.05943,-0.0319 0.05943,-0.07089c0,-0.03899 0.02493,-0.07089 0.05553,-0.07089c0.0768,0 0.5116,-0.4654 0.5116,-0.54752c0,-0.03675 0.02127,-0.06687 0.04726,-0.06687c0.02599,0 0.04773,-0.02658 0.04832,-0.05908c0.00059,-0.03249 0.04265,-0.11224 0.09346,-0.17723c0.05081,-0.06498 0.09287,-0.166 0.09346,-0.22449c0.00059,-0.05849 0.02032,-0.10634 0.04383,-0.10634c0.02363,0 0.04572,-0.31901 0.04927,-0.70891c0.00414,-0.46375 -0.01063,-0.70891 -0.04289,-0.70891c-0.02706,0 -0.04951,-0.03722 -0.04986,-0.08271c-0.00106,-0.11792 -0.11945,-0.44307 -0.15017,-0.41223c-0.01418,0.01418 -0.06038,-0.04714 -0.10256,-0.13611c-0.07444,-0.15691 -0.36095,-0.50002 -0.36095,-0.43232c0,0.01855 -0.06168,-0.03237 -0.13706,-0.11319c-0.0755,-0.0807 -0.16057,-0.14674 -0.18904,-0.14674c-0.02859,0 -0.05199,-0.01725 -0.05199,-0.0384c0,-0.02115 -0.07444,-0.0677 -0.16541,-0.10338c-0.09098,-0.03568 -0.16541,-0.08223 -0.16541,-0.10338c0,-0.02115 -0.0625,-0.0384 -0.13895,-0.0384c-0.07644,0 -0.15218,-0.02127 -0.16825,-0.04726c-0.04702,-0.07597 -1.39277,-0.05187 -1.53597,0.02753" id="path1"/>
   <path stroke="null" fill-rule="evenodd" fill="#accc54" d="m3.21313,16.48095c-0.06723,0.07644 -0.0755,0.11839 -0.02316,0.11839c0.01973,0 0.06238,-0.04253 0.09488,-0.09452c0.06746,-0.10787 0.01701,-0.12465 -0.07172,-0.02387m-1.76046,2.2463c0,0.02528 0.00177,0.05967 0.00402,0.07621c0.00224,0.01666 -0.02044,0.04537 -0.05033,0.0638c-0.03001,0.01855 -0.0599,0.07042 -0.06652,0.11543c-0.00662,0.04502 -0.03214,0.09606 -0.05683,0.11343c-0.06168,0.04348 -0.16116,0.27778 -0.16116,0.37939c0,0.04596 -0.03722,0.12548 -0.08271,0.17687c-0.04549,0.0514 -0.08956,0.12453 -0.09807,0.16258c-0.00839,0.03793 -0.03497,0.07609 -0.05908,0.08471c-0.02398,0.00874 -0.04372,0.07786 -0.04372,0.1536c0,0.07585 -0.02127,0.13788 -0.04726,0.13788c-0.02599,0 -0.04691,0.03722 -0.04655,0.08271c0.00059,0.07065 0.00744,0.07243 0.04655,0.01182c0.02517,-0.03899 0.0462,-0.04832 0.04655,-0.02068c0.00035,0.02753 -0.04183,0.09582 -0.09381,0.15159c-0.05199,0.05577 -0.09452,0.14355 -0.09452,0.19519c0,0.05151 -0.02127,0.10681 -0.04726,0.12288c-0.02599,0.01607 -0.04726,0.10244 -0.04726,0.19188c0,0.08944 -0.02127,0.16258 -0.04726,0.16258c-0.02599,0 -0.04726,0.08377 -0.04726,0.18621c0,0.10244 -0.01926,0.19814 -0.04277,0.21267c-0.02339,0.01453 -0.0436,0.13765 -0.04454,0.27364c-0.00106,0.13599 -0.0228,0.25426 -0.04832,0.26277c-0.02729,0.0091 -0.04821,0.30578 -0.05069,0.72155l-0.00437,0.70619l17.65272,0l17.65272,0l0,-0.27317c0,-0.7954 0.27553,-2.24382 0.56394,-2.96419c0.18125,-0.45299 0.29361,-0.70619 0.4771,-1.07518l0.18195,-0.36627l-17.55135,0c-11.28965,0 -17.59471,-0.01642 -17.67269,-0.04608c-0.07881,-0.03001 -0.12122,-0.03001 -0.12122,0m0,9.48488c0,0.0345 0.03178,0.04549 0.07904,0.02729c0.06002,-0.02304 0.07184,-0.01122 0.0488,0.0488c-0.01808,0.04714 -0.00709,0.07928 0.02729,0.07975c0.0449,0.00059 0.04478,0.00886 -0.00047,0.03757c-0.04265,0.02717 -0.03332,0.0547 0.03545,0.10421c0.0514,0.0371 0.09346,0.09618 0.09346,0.13127c0,0.07999 0.1204,0.2044 0.15974,0.16506c0.01619,-0.01607 0.0293,0.02871 0.0293,0.0996c0,0.07384 0.0202,0.11638 0.04726,0.0996c0.02599,-0.01607 0.04726,-0.00071 0.04726,0.03403c0,0.03485 0.04253,0.09393 0.09452,0.13138c0.05199,0.03745 0.09452,0.09677 0.09452,0.13162c0,0.03497 0.10634,0.16718 0.2363,0.29373c0.12997,0.12654 0.2363,0.2454 0.2363,0.26407c0,0.07869 0.72415,0.72841 0.81182,0.72841c0.03001,0 0.041,0.01359 0.02434,0.03025c-0.04407,0.04407 0.26395,0.30341 0.33118,0.27884c0.03107,-0.01134 0.06983,0.02103 0.08601,0.07207c0.01619,0.05104 0.04927,0.08058 0.07337,0.06569c0.0241,-0.01489 0.04383,0.00248 0.04383,0.03864c0,0.03615 0.05849,0.0957 0.12997,0.13245c0.07148,0.03663 0.16435,0.10409 0.20641,0.1497c0.04206,0.04572 0.11118,0.08306 0.1536,0.08306c0.04242,0 0.07715,0.02127 0.07715,0.04726c0,0.02599 0.0332,0.04726 0.07373,0.04726c0.04053,0 0.06049,0.02127 0.04443,0.04726c-0.01666,0.02694 0.0241,0.04726 0.09452,0.04726c0.07042,0 0.11118,0.02032 0.09452,0.04726c-0.01607,0.02599 0.01453,0.04726 0.06806,0.04726c0.05352,0 0.09736,0.02257 0.09736,0.0501c0,0.02753 0.01997,0.03769 0.04431,0.02257c0.02446,-0.01501 0.06168,-0.00012 0.08271,0.0332c0.0527,0.08318 0.51432,0.29042 0.5702,0.2558c0.02481,-0.01536 0.09369,0.02375 0.15301,0.08684c0.06699,0.07125 0.18597,0.12642 0.31405,0.14568c0.11343,0.01701 0.20629,0.04974 0.20629,0.07278c0,0.02304 0.0638,0.04194 0.14178,0.04194c0.07798,0 0.14178,0.02127 0.14178,0.04726c0,0.02599 0.0638,0.04726 0.14178,0.04726c0.07798,0 0.14178,0.02127 0.14178,0.04726c0,0.02599 0.07018,0.04726 0.15596,0.04726c0.08578,0 0.18455,0.02658 0.21964,0.05908c0.05092,0.04726 0.05695,0.04726 0.03025,0c-0.01831,-0.03249 -0.01087,-0.05908 0.01666,-0.05908c0.02753,0 0.0501,0.02127 0.0501,0.04726c0,0.02599 0.0625,0.04726 0.13895,0.04726c0.07644,0 0.15218,0.02127 0.16825,0.04726c0.01607,0.02599 0.13434,0.04726 0.26277,0.04726c0.12843,0 0.23347,0.02127 0.23347,0.04726c0,0.03143 5.94694,0.04726 17.74641,0.04726c10.59279,0 17.74641,-0.01725 17.74641,-0.04289c0,-0.02363 -0.11165,-0.05459 -0.24812,-0.06876c-0.45583,-0.0475 -0.67311,-0.08672 -0.71836,-0.12949c-0.02469,-0.02328 -0.10315,-0.04242 -0.17439,-0.04242c-0.07125,0 -0.14273,-0.02127 -0.1588,-0.04726c-0.01607,-0.02599 -0.0905,-0.04726 -0.16541,-0.04726c-0.07491,0 -0.14934,-0.02127 -0.16541,-0.04726c-0.01607,-0.02599 -0.07077,-0.04726 -0.12158,-0.04726c-0.05081,0 -0.12926,-0.01879 -0.17439,-0.04171c-0.0905,-0.04608 -0.31334,-0.1406 -0.4602,-0.19507c-1.56728,-0.58261 -3.26489,-1.99606 -4.30073,-3.58107l-0.28356,-0.43397l-17.68734,-0.01264c-13.88237,-0.00992 -17.68734,-0.00024 -17.68734,0.0449" id="path2"/>
   <path stroke="null" fill-rule="evenodd" fill="#ccec8c" d="m43.98735,14.04395c0,0.02422 -0.03722,0.05352 -0.08271,0.06522c-0.04549,0.01158 -0.00035,0.01477 0.10019,0.00697c0.23619,-0.01831 0.34878,-0.11614 0.13375,-0.11614c-0.08318,0 -0.15123,0.01973 -0.15123,0.04395m-0.66165,0.14509c-0.09499,0.03037 -0.0996,0.03816 -0.02363,0.03923c0.05199,0.00071 0.13706,-0.0169 0.18904,-0.03923c0.1204,-0.05175 -0.00378,-0.05175 -0.16541,0m-0.44898,0.09452c-0.05955,0.02564 -0.06829,0.04064 -0.02363,0.04064c0.03899,0 0.11343,-0.01831 0.16541,-0.04064c0.05955,-0.02564 0.06829,-0.04064 0.02363,-0.04064c-0.03899,0 -0.11343,0.01831 -0.16541,0.04064m-0.99248,0.28356c-0.0911,0.03911 -0.09086,0.04076 0.00898,0.04395c0.05695,0.00177 0.11673,-0.01796 0.1328,-0.04395c0.0345,-0.05589 -0.0117,-0.05589 -0.14178,0m-0.56713,0.2337c-0.10397,0.04927 -0.16577,0.09121 -0.13717,0.09334c0.05778,0.00425 0.34985,-0.13351 0.34985,-0.16506c0,-0.02847 -0.00284,-0.02753 -0.21267,0.07172m-0.99129,0.50215c-0.41282,0.23583 -0.98149,0.63554 -1.27722,0.89772c-0.10397,0.09216 0.04088,-0.00307 0.32196,-0.21161c0.28108,-0.20842 0.70111,-0.48879 0.9334,-0.62278c0.36143,-0.20866 0.46741,-0.28061 0.41058,-0.27896c-0.0065,0.00024 -0.18136,0.09724 -0.38872,0.21563m-1.94017,1.48671c-0.17983,0.18125 -0.31346,0.32953 -0.29692,0.32953c0.04289,0 0.66307,-0.61971 0.64168,-0.64121c-0.00981,-0.00969 -0.16494,0.13056 -0.34477,0.31168m-0.66035,0.7401c-0.31736,0.40349 -0.82683,1.15092 -0.82695,1.2133c-0.00012,0.02233 0.13032,-0.15844 0.28971,-0.40172c0.15939,-0.24327 0.42582,-0.60718 0.59218,-0.80863c0.16624,-0.20145 0.28569,-0.36568 0.26549,-0.36485c-0.02032,0.00071 -0.16447,0.16352 -0.32043,0.3619m-1.93107,4.18364c-0.01595,0.05955 -0.02694,0.1614 -0.02446,0.22638c0.00272,0.06959 0.0215,0.03202 0.04572,-0.09157c0.04336,-0.2213 0.028,-0.31877 -0.02127,-0.13481m-0.10929,0.95892c0.00024,0.18195 0.00874,0.2506 0.01902,0.15253c0.01028,-0.09807 0.01004,-0.24694 -0.00035,-0.33083c-0.01052,-0.08389 -0.0189,-0.00366 -0.01867,0.17829m4.72348,0.7798c0,0.11697 0.00922,0.16482 0.02044,0.10634c0.01134,-0.05849 0.01134,-0.15419 0,-0.21267c-0.01122,-0.05849 -0.02044,-0.01063 -0.02044,0.10634m-4.77204,0.2363c0,0.14296 0.00886,0.20145 0.01973,0.12997c0.01075,-0.07148 0.01075,-0.18845 0,-0.25993c-0.01087,-0.07148 -0.01973,-0.013 -0.01973,0.12997m0.03864,0.73644c0.00307,0.12784 0.0228,0.29621 0.04372,0.37419c0.02328,0.08649 0.02788,0.00366 0.01193,-0.21267c-0.03013,-0.40703 -0.06392,-0.5051 -0.05565,-0.16151m0.09783,0.65775c-0.00118,0.07798 0.01607,0.18432 0.0384,0.2363l0.04064,0.09452l-0.00224,-0.09452c-0.0013,-0.05199 -0.01855,-0.15832 -0.0384,-0.2363l-0.03604,-0.14178l-0.00236,0.14178m0.09369,0.47261c-0.00071,0.05199 0.0169,0.13706 0.03923,0.18904c0.05175,0.1204 0.05175,-0.00378 0,-0.16541c-0.03037,-0.09499 -0.03816,-0.0996 -0.03923,-0.02363m0.08791,0.40172c0,0.03899 0.02068,0.10279 0.04584,0.14178c0.04076,0.06297 0.04584,0.06297 0.04584,0c0,-0.03899 -0.02068,-0.10279 -0.04584,-0.14178c-0.04076,-0.06297 -0.04584,-0.06297 -0.04584,0m0.80745,1.99677c0.06983,0.13268 0.23087,0.34252 0.23087,0.3007c0,-0.03899 -0.24221,-0.40703 -0.26785,-0.40703c-0.01052,0 0.00614,0.04785 0.03698,0.10634m0.70241,1.07376c0.05506,0.07715 0.12418,0.15525 0.1536,0.17345c0.02954,0.01831 -0.00591,-0.0449 -0.07869,-0.14036c-0.15797,-0.20712 -0.21752,-0.23347 -0.07491,-0.03308m0.37324,0.46705c0.10563,0.12607 0.22945,0.25899 0.27529,0.29538c0.04584,0.03627 -0.03119,-0.06687 -0.17108,-0.22933c-0.13977,-0.16246 -0.26372,-0.29538 -0.27518,-0.29538c-0.01158,0 0.06546,0.10315 0.17097,0.22933m2.7234,2.22823c0.07798,0.05163 0.16305,0.09393 0.18904,0.09405c0.02599,0 -0.02233,-0.0423 -0.10752,-0.09417c-0.20062,-0.12241 -0.26631,-0.12229 -0.08152,0.00012m0.28049,0.13682c0.01453,0.02363 0.09523,0.06687 0.17912,0.09606c0.17699,0.06179 0.12347,0.00095 -0.07266,-0.08247c-0.07314,-0.03119 -0.12111,-0.03722 -0.10645,-0.01359m3.20499,0.93576c0.04549,0.01158 0.08271,0.04076 0.08271,0.06498c0,0.02422 0.05742,0.04395 0.1276,0.04395c0.18184,0 0.07361,-0.09358 -0.13174,-0.1139c-0.08873,-0.00874 -0.12406,-0.0065 -0.07857,0.00496" id="path3"/>
   <path stroke="null" fill-rule="evenodd" fill="#c4e480" d="m43.82194,14.04726c-0.01607,0.02599 -0.11839,0.04762 -0.22732,0.04797c-0.10894,0.00035 -0.22992,0.02292 -0.26891,0.0501c-0.054,0.03769 -0.03722,0.04383 0.07089,0.02599c0.07798,-0.01288 0.2428,-0.03675 0.36627,-0.05305c0.12347,-0.01619 0.22449,-0.04951 0.22449,-0.07396c0,-0.05908 -0.12843,-0.05683 -0.16541,0.00295m-0.92158,0.18845c-0.04832,0.03072 -0.01063,0.03592 0.11815,0.01619c0.23359,-0.0358 0.2734,-0.06309 0.09062,-0.06215c-0.07585,0.00035 -0.16978,0.02103 -0.20877,0.04596m-0.37809,0.09582c-0.04986,0.03261 -0.02186,0.03745 0.09452,0.01607c0.20381,-0.03745 0.24233,-0.06427 0.09062,-0.06333c-0.06286,0.00035 -0.14615,0.02162 -0.18514,0.04726m-0.41129,0.11295c-0.20854,0.07597 -0.25249,0.13103 -0.05589,0.07018c0.36131,-0.11177 0.40136,-0.12855 0.30176,-0.1269c-0.05199,0.00083 -0.16258,0.02635 -0.24587,0.05671m-1.53822,0.66957c-0.18325,0.09937 -0.16246,0.13375 0.02363,0.03899c0.17817,-0.0905 0.20972,-0.11402 0.1497,-0.11142c-0.02387,0.00106 -0.10185,0.03367 -0.17333,0.07243m-0.42535,0.2363c-0.24351,0.15951 -0.22283,0.18077 0.03545,0.03651c0.20121,-0.11248 0.25722,-0.16163 0.17723,-0.15525c-0.0195,0.00142 -0.1152,0.05494 -0.21267,0.11874m-0.75275,0.52329c-0.76716,0.56819 -2.26816,2.16643 -2.25729,2.40345c0.00118,0.02599 0.03828,-0.0052 0.08235,-0.06936c0.57753,-0.83935 1.40695,-1.70895 2.18333,-2.28907c0.5637,-0.42121 0.54515,-0.40632 0.50746,-0.40632c-0.01548,0 -0.24765,0.16258 -0.51585,0.36131m-2.39376,2.57347c-0.08968,0.14355 -0.0358,0.1627 0.05742,0.02044c0.04313,-0.06569 0.06179,-0.11957 0.04135,-0.11957c-0.02032,0 -0.06475,0.04466 -0.09877,0.09913m-1.11535,2.71631c-0.01749,0.06924 -0.02257,0.13505 -0.01146,0.14615c0.01122,0.01111 0.0345,-0.03639 0.05187,-0.10575c0.01749,-0.06924 0.02257,-0.13505 0.01146,-0.14615c-0.01122,-0.01111 -0.0345,0.03639 -0.05187,0.10575m-0.09452,0.42535c-0.01749,0.06924 -0.02257,0.13505 -0.01146,0.14615c0.01122,0.01111 0.0345,-0.03639 0.05187,-0.10575c0.01749,-0.06924 0.02257,-0.13505 0.01146,-0.14615c-0.01122,-0.01111 -0.0345,0.03639 -0.05187,0.10575m-0.09795,0.54007c-0.0182,0.10752 -0.02316,0.20535 -0.01099,0.2174c0.01217,0.01217 0.03615,-0.06652 0.05352,-0.17486c0.01737,-0.10835 0.02221,-0.20618 0.01099,-0.2174c-0.01122,-0.01134 -0.03533,0.06735 -0.05352,0.17486m-0.0892,1.26423c-0.01666,0.33142 -0.01323,0.70891 0.00768,0.83888c0.02741,0.16978 0.03946,0.00035 0.04289,-0.60257c0.00543,-0.99259 -0.00898,-1.06006 -0.05057,-0.2363m0.0768,1.40601c0,0.07798 0.01619,0.20558 0.03604,0.28356l0.03604,0.14178l0,-0.14178c0,-0.07798 -0.01619,-0.20558 -0.03604,-0.28356l-0.03604,-0.14178l0,0.14178m0.09133,0.51987c0.00071,0.05199 0.01843,0.14769 0.03923,0.21267l0.03781,0.11815l0.00142,-0.11815c0.00071,-0.06498 -0.0169,-0.16069 -0.03923,-0.21267l-0.04064,-0.09452l0.00142,0.09452m0.11603,0.49624c0.02434,0.15383 0.2558,0.89642 0.3463,1.11063c0.12867,0.30495 0.19814,0.44898 0.21645,0.44898c0.01134,0 -0.02422,-0.11165 -0.07928,-0.24812c-0.09688,-0.24068 -0.35363,-0.97534 -0.45819,-1.31149l-0.0514,-0.16541l0.02611,0.16541m0.58485,1.6403c0,0.05648 0.23406,0.48643 0.26478,0.48643c0.0189,0 -0.207,-0.47213 -0.24682,-0.51597c-0.00992,-0.01075 -0.01796,0.00248 -0.01796,0.02954m0.47438,0.84089c0.00024,0.02599 0.04383,0.10043 0.097,0.16541c0.06416,0.07845 0.08023,0.08637 0.04773,0.02363c-0.07963,-0.15419 -0.14509,-0.23961 -0.14474,-0.18904m0.28179,0.44898c0.05553,0.07798 0.11154,0.14178 0.12453,0.14178c0.013,0 -0.02174,-0.0638 -0.07727,-0.14178c-0.05553,-0.07798 -0.11154,-0.14178 -0.12453,-0.14178c-0.013,0 0.02174,0.0638 0.07727,0.14178m0.17888,0.26041c0.02682,0.05234 0.09854,0.13729 0.15939,0.18881c0.10681,0.09027 0.10657,0.08861 -0.00673,-0.04785c-0.18822,-0.22662 -0.20405,-0.24127 -0.15265,-0.14096m0.64818,0.77933c0.10149,0.10397 0.19519,0.18904 0.20818,0.18904c0.013,0 -0.05943,-0.08507 -0.16092,-0.18904c-0.10149,-0.10397 -0.19519,-0.18904 -0.20818,-0.18904c-0.013,0 0.05943,0.08507 0.16092,0.18904m0.59076,0.59076c0.14119,0.14296 0.26738,0.25993 0.28037,0.25993c0.013,0 -0.09192,-0.11697 -0.23311,-0.25993c-0.14119,-0.14296 -0.26738,-0.25993 -0.28037,-0.25993c-0.013,0 0.09192,0.11697 0.23311,0.25993m0.99035,0.80083c0.03639,0.04383 0.1315,0.11295 0.21137,0.15348c0.18006,0.09157 0.15135,0.05789 -0.0911,-0.10669c-0.10256,-0.06959 -0.15667,-0.09062 -0.12028,-0.04679m1.60899,0.89925c0,0.03745 0.34264,0.17061 0.36958,0.14367c0.01335,-0.01335 0.01264,-0.02422 -0.00142,-0.02422c-0.01418,0 -0.10279,-0.03214 -0.19696,-0.07148c-0.09417,-0.03934 -0.1712,-0.06097 -0.1712,-0.04797m1.0909,0.42003c0.01087,0.00933 0.08353,0.03119 0.16151,0.04868c0.1035,0.02316 0.12264,0.01879 0.07089,-0.0163c-0.0638,-0.04313 -0.27978,-0.07325 -0.2324,-0.03237m0.37809,0.09452c0.01087,0.00933 0.08353,0.03119 0.16151,0.04868c0.1035,0.02316 0.12264,0.01879 0.07089,-0.0163c-0.0638,-0.04313 -0.27978,-0.07325 -0.2324,-0.03237m0.97735,0.20547c0.05872,0.01134 0.14379,0.01087 0.18904,-0.00095c0.04513,-0.01182 -0.00295,-0.02115 -0.10693,-0.02056c-0.10397,0.00047 -0.14096,0.01016 -0.08212,0.0215m0.27116,0.06108c-0.01607,0.02599 0.01453,0.04726 0.06806,0.04726c0.05352,0 0.09736,-0.02127 0.09736,-0.04726c0,-0.02599 -0.0306,-0.04726 -0.06806,-0.04726c-0.03745,0 -0.08129,0.02127 -0.09736,0.04726" id="path4"/>
  </g>
</svg>