<svg width="48" height="48" xmlns="http://www.w3.org/2000/svg">
   <g stroke="null" fill-rule="evenodd" fill="#ffffff" transform="translate(0 512) scale(0.1 -0.1)" id="svg_2">
    <path stroke="null" fill-rule="evenodd" fill="#ffffff" d="m39.55366,5083.18099c-18.03924,-4.80334 -32.12905,-19.21339 -36.9324,-37.4661c-2.45505,-9.17973 -2.45505,-322.35794 0,-331.53767c4.80334,-18.4662 18.99991,-32.7695 37.35936,-37.57284c5.55053,-1.38763 29.46053,-1.60111 199.17878,-1.60111c123.81961,0 194.90914,0.42697 198.53834,1.06741c19.53361,3.62919 36.71892,20.8145 40.45486,40.45486c0.64045,3.73594 1.06741,60.94913 1.06741,164.3812c0,139.08358 -0.21348,159.47112 -1.60111,165.02165c-4.80334,18.35946 -19.10665,32.55602 -37.57284,37.35936c-9.07299,2.3483 -391.63288,2.24156 -400.49239,-0.10674l0,0zm397.61038,-35.22455c1.60111,-1.17415 3.94942,-3.52245 5.12357,-5.12357c2.13482,-2.77527 2.24156,-4.58987 2.56179,-31.70209l0.32022,-28.71334l-205.04954,0l-204.9428,0l0,27.11223c0,28.17963 0.42697,31.16839 4.58987,35.75825c5.23031,5.65728 -5.87076,5.33705 201.63383,5.12357l192.88106,-0.21348l2.88201,-2.24156l0,0zm7.68536,-213.69556l-0.32022,-114.10617l-2.88201,-3.73594c-6.08424,-7.89884 11.74152,-7.25839 -202.91472,-7.04491l-192.77432,0.32022l-2.88201,2.24156c-1.60111,1.17415 -3.94942,3.52245 -5.12357,5.12357c-2.24156,2.88201 -2.24156,3.62919 -2.56179,117.09492l-0.21348,114.10617l204.9428,0l204.9428,0l-0.21348,-113.99943l0,0z" id="svg_3"/>
    <path stroke="null" fill-rule="evenodd" fill="#ffffff" d="m77.44673,5030.6644c-11.42129,-7.89884 -10.24714,-23.69651 2.13482,-29.56727c8.00558,-3.84268 18.89316,0.42697 22.30888,8.75276c6.40446,15.37071 -10.99433,30.20771 -24.4437,20.8145l0,0z" id="svg_4"/>
    <path stroke="null" fill-rule="evenodd" fill="#ffffff" d="m131.24421,5032.26552c-4.91009,-1.8146 -10.6741,-10.1404 -10.6741,-15.37071c0,-16.33138 20.70776,-23.26955 30.63468,-10.35388c10.1404,13.34263 -4.05616,31.59535 -19.96058,25.72459z" id="svg_5"/>
    <path stroke="null" fill-rule="evenodd" fill="#ffffff" d="m181.51924,5031.83855c-4.48313,-2.24156 -9.71344,-10.24714 -9.71344,-14.837c0,-5.87076 2.88201,-10.99433 8.21906,-14.3033c8.64602,-5.55053 17.39879,-3.52245 22.84258,5.23031c3.41571,5.33705 3.84268,9.71344 1.49437,15.37071c-3.52245,8.43254 -14.837,12.70218 -22.84258,8.53929z" id="svg_6"/>
    <path stroke="null" fill-rule="evenodd" fill="#ffffff" d="m96.55338,4912.60881c-7.15165,-3.09549 -11.20781,-11.20781 -9.60669,-19.53361c0.64045,-3.41571 3.94942,-7.36513 22.20213,-25.61785l21.45495,-21.66843l-21.45495,-21.56169c-23.16281,-23.37629 -23.90999,-24.55044 -22.20213,-33.62343c0.96067,-5.23031 7.36513,-11.63477 12.59544,-12.59544c9.39321,-1.8146 9.60669,-1.70786 41.52226,30.20771c25.51111,25.51111 29.67401,30.10097 30.20771,33.62343c1.70786,9.39321 1.60111,9.71344 -29.14031,40.66834c-15.69093,15.69093 -29.99423,29.24705 -31.91557,30.10097c-4.26964,1.8146 -9.49995,1.8146 -13.66285,0l0,0z" id="svg_7"/>
    <path stroke="null" fill-rule="evenodd" fill="#ffffff" d="m199.02478,4810.13741c-7.15165,-3.09549 -11.20781,-11.31455 -9.71344,-19.32013c0.96067,-5.01683 6.29772,-10.88758 11.10107,-12.27522c2.56179,-0.74719 17.07857,-1.06741 42.05597,-0.85393c36.50544,0.32022 38.21329,0.42697 40.98856,2.56179c5.65728,4.1629 7.36513,7.57861 7.36513,14.3033c0,6.72468 -1.70786,10.1404 -7.36513,14.3033c-2.77527,2.13482 -4.37638,2.24156 -42.05597,2.45505c-30.9549,0.21348 -39.81441,0 -42.37619,-1.17415l0,0z" id="svg_8"/>
   </g>
</svg>